# MagicaVoxel @ Ephtracy

# group
o 

# material
mtllib SciFi_Floor_Corner.mtl
usemtl palette

# normals
vn -1 0 0
vn 1 0 0
vn 0 0 1
vn 0 0 -1
vn 0 -1 0
vn 0 1 0

# texcoords
vt 0.970703 0.5
vt 0.978516 0.5
vt 0.982422 0.5
vt 0.986328 0.5

# verts
v -0.5 0 0.5
v -0.5 0 0.2
v -0.5 0 0.1
v -0.5 0 0
v -0.5 0 -0.4
v -0.5 0 -0.5
v -0.5 0.1 0.5
v -0.5 0.1 0.2
v -0.5 0.1 0.1
v -0.5 0.1 0
v -0.5 0.1 -0.4
v -0.5 0.1 -0.5
v 0.5 0 0.5
v 0.5 0 -0.5
v 0.5 0.1 0.5
v 0.5 0.1 -0.5
v -0.5 0 0.5
v -0.5 0.1 0.5
v -0.2 0 0.5
v -0.2 0.1 0.5
v -0.1 0 0.5
v -0.1 0.1 0.5
v 0 0 0.5
v 0 0.1 0.5
v 0.4 0 0.5
v 0.4 0.1 0.5
v 0.5 0 0.5
v 0.5 0.1 0.5
v -0.5 0 -0.5
v -0.5 0.1 -0.5
v 0.5 0 -0.5
v 0.5 0.1 -0.5
v -0.5 0 0.5
v -0.2 0 0.5
v -0.1 0 0.5
v 0 0 0.5
v 0.4 0 0.5
v 0.5 0 0.5
v -0.5 0 0.2
v -0.2 0 0.2
v -0.5 0 0.1
v -0.1 0 0.1
v -0.5 0 0
v 0 0 0
v 0.3 0 -0.2
v 0.4 0 -0.2
v 0.2 0 -0.3
v 0.3 0 -0.3
v -0.5 0 -0.4
v 0.2 0 -0.4
v -0.5 0 -0.5
v 0.5 0 -0.5
v -0.5 0.1 0.5
v -0.2 0.1 0.5
v -0.1 0.1 0.5
v 0 0.1 0.5
v 0.4 0.1 0.5
v 0.5 0.1 0.5
v -0.5 0.1 0.2
v -0.2 0.1 0.2
v -0.5 0.1 0.1
v -0.1 0.1 0.1
v -0.5 0.1 0
v 0 0.1 0
v 0.3 0.1 -0.2
v 0.4 0.1 -0.2
v 0.2 0.1 -0.3
v 0.3 0.1 -0.3
v -0.5 0.1 -0.4
v 0.2 0.1 -0.4
v -0.5 0.1 -0.5
v 0.5 0.1 -0.5

# faces
f 7/1/1 2/1/1 1/1/1
f 8/2/1 3/2/1 2/2/1
f 8/1/1 2/1/1 7/1/1
f 9/1/1 4/1/1 3/1/1
f 9/2/1 3/2/1 8/2/1
f 10/3/1 5/3/1 4/3/1
f 10/1/1 4/1/1 9/1/1
f 11/4/1 6/4/1 5/4/1
f 11/3/1 5/3/1 10/3/1
f 12/4/1 6/4/1 11/4/1
f 13/4/2 14/4/2 15/4/2
f 15/4/2 14/4/2 16/4/2
f 19/1/3 18/1/3 17/1/3
f 20/1/3 18/1/3 19/1/3
f 21/2/3 20/2/3 19/2/3
f 22/2/3 20/2/3 21/2/3
f 23/1/3 22/1/3 21/1/3
f 24/1/3 22/1/3 23/1/3
f 25/3/3 24/3/3 23/3/3
f 26/3/3 24/3/3 25/3/3
f 27/4/3 26/4/3 25/4/3
f 28/4/3 26/4/3 27/4/3
f 29/4/4 30/4/4 31/4/4
f 31/4/4 30/4/4 32/4/4
f 39/1/5 34/1/5 33/1/5
f 40/2/5 35/2/5 34/2/5
f 40/1/5 34/1/5 39/1/5
f 41/2/5 40/2/5 39/2/5
f 42/1/5 36/1/5 35/1/5
f 42/2/5 40/2/5 41/2/5
f 42/2/5 35/2/5 40/2/5
f 43/1/5 42/1/5 41/1/5
f 44/3/5 37/3/5 36/3/5
f 44/1/5 42/1/5 43/1/5
f 44/1/5 36/1/5 42/1/5
f 45/3/5 44/3/5 43/3/5
f 45/3/5 37/3/5 44/3/5
f 46/4/5 38/4/5 37/4/5
f 46/3/5 37/3/5 45/3/5
f 47/3/5 45/3/5 43/3/5
f 48/4/5 46/4/5 45/4/5
f 48/3/5 45/3/5 47/3/5
f 49/3/5 47/3/5 43/3/5
f 50/4/5 48/4/5 47/4/5
f 50/3/5 47/3/5 49/3/5
f 51/4/5 50/4/5 49/4/5
f 52/4/5 38/4/5 46/4/5
f 52/4/5 50/4/5 51/4/5
f 52/4/5 46/4/5 48/4/5
f 52/4/5 48/4/5 50/4/5
f 53/1/6 54/1/6 59/1/6
f 54/2/6 55/2/6 60/2/6
f 59/1/6 54/1/6 60/1/6
f 59/2/6 60/2/6 61/2/6
f 55/1/6 56/1/6 62/1/6
f 61/2/6 60/2/6 62/2/6
f 60/2/6 55/2/6 62/2/6
f 61/1/6 62/1/6 63/1/6
f 56/3/6 57/3/6 64/3/6
f 63/1/6 62/1/6 64/1/6
f 62/1/6 56/1/6 64/1/6
f 63/3/6 64/3/6 65/3/6
f 64/3/6 57/3/6 65/3/6
f 57/4/6 58/4/6 66/4/6
f 65/3/6 57/3/6 66/3/6
f 63/3/6 65/3/6 67/3/6
f 65/4/6 66/4/6 68/4/6
f 67/3/6 65/3/6 68/3/6
f 63/3/6 67/3/6 69/3/6
f 67/4/6 68/4/6 70/4/6
f 69/3/6 67/3/6 70/3/6
f 69/4/6 70/4/6 71/4/6
f 66/4/6 58/4/6 72/4/6
f 71/4/6 70/4/6 72/4/6
f 68/4/6 66/4/6 72/4/6
f 70/4/6 68/4/6 72/4/6
