# MagicaVoxel @ Ephtracy

# group
o 

# material
mtllib SciFi_Floor_Side.mtl
usemtl palette

# normals
vn -1 0 0
vn 1 0 0
vn 0 0 1
vn 0 0 -1
vn 0 -1 0
vn 0 1 0

# texcoords
vt 0.970703 0.5
vt 0.978516 0.5
vt 0.982422 0.5
vt 0.986328 0.5

# verts
v -0.5 0 0.5
v -0.5 0 -0.5
v -0.5 0.1 0.5
v -0.5 0.1 -0.5
v 0.5 0 0.5
v 0.5 0 -0.5
v 0.5 0.1 0.5
v 0.5 0.1 -0.5
v -0.5 0 0.5
v -0.5 0.1 0.5
v -0.2 0 0.5
v -0.2 0.1 0.5
v -0.1 0 0.5
v -0.1 0.1 0.5
v 0 0 0.5
v 0 0.1 0.5
v 0.4 0 0.5
v 0.4 0.1 0.5
v 0.5 0 0.5
v 0.5 0.1 0.5
v -0.5 0 -0.5
v -0.5 0.1 -0.5
v -0.2 0 -0.5
v -0.2 0.1 -0.5
v -0.1 0 -0.5
v -0.1 0.1 -0.5
v 0 0 -0.5
v 0 0.1 -0.5
v 0.4 0 -0.5
v 0.4 0.1 -0.5
v 0.5 0 -0.5
v 0.5 0.1 -0.5
v -0.5 0 0.5
v -0.2 0 0.5
v -0.1 0 0.5
v 0 0 0.5
v 0.4 0 0.5
v 0.5 0 0.5
v -0.5 0 -0.5
v -0.2 0 -0.5
v -0.1 0 -0.5
v 0 0 -0.5
v 0.4 0 -0.5
v 0.5 0 -0.5
v -0.5 0.1 0.5
v -0.2 0.1 0.5
v -0.1 0.1 0.5
v 0 0.1 0.5
v 0.4 0.1 0.5
v 0.5 0.1 0.5
v -0.5 0.1 -0.5
v -0.2 0.1 -0.5
v -0.1 0.1 -0.5
v 0 0.1 -0.5
v 0.4 0.1 -0.5
v 0.5 0.1 -0.5

# faces
f 3/1/1 2/1/1 1/1/1
f 4/1/1 2/1/1 3/1/1
f 5/4/2 6/4/2 7/4/2
f 7/4/2 6/4/2 8/4/2
f 11/1/3 10/1/3 9/1/3
f 12/1/3 10/1/3 11/1/3
f 13/2/3 12/2/3 11/2/3
f 14/2/3 12/2/3 13/2/3
f 15/1/3 14/1/3 13/1/3
f 16/1/3 14/1/3 15/1/3
f 17/3/3 16/3/3 15/3/3
f 18/3/3 16/3/3 17/3/3
f 19/4/3 18/4/3 17/4/3
f 20/4/3 18/4/3 19/4/3
f 21/1/4 22/1/4 23/1/4
f 23/1/4 22/1/4 24/1/4
f 23/2/4 24/2/4 25/2/4
f 25/2/4 24/2/4 26/2/4
f 25/1/4 26/1/4 27/1/4
f 27/1/4 26/1/4 28/1/4
f 27/3/4 28/3/4 29/3/4
f 29/3/4 28/3/4 30/3/4
f 29/4/4 30/4/4 31/4/4
f 31/4/4 30/4/4 32/4/4
f 39/1/5 34/1/5 33/1/5
f 40/2/5 35/2/5 34/2/5
f 40/1/5 34/1/5 39/1/5
f 41/1/5 36/1/5 35/1/5
f 41/2/5 35/2/5 40/2/5
f 42/3/5 37/3/5 36/3/5
f 42/1/5 36/1/5 41/1/5
f 43/4/5 38/4/5 37/4/5
f 43/3/5 37/3/5 42/3/5
f 44/4/5 38/4/5 43/4/5
f 45/1/6 46/1/6 51/1/6
f 46/2/6 47/2/6 52/2/6
f 51/1/6 46/1/6 52/1/6
f 47/1/6 48/1/6 53/1/6
f 52/2/6 47/2/6 53/2/6
f 48/3/6 49/3/6 54/3/6
f 53/1/6 48/1/6 54/1/6
f 49/4/6 50/4/6 55/4/6
f 54/3/6 49/3/6 55/3/6
f 55/4/6 50/4/6 56/4/6
